<svg xmlns="http://www.w3.org/2000/svg" xmlns:xlink="http://www.w3.org/1999/xlink" width="575px" height="231px" viewBox="0 0 575 231"><title>logo-alta-calidad-ho</title><desc>Created with Sketch.</desc><defs><linearGradient x1="-0.29916024%" y1="50.0206905%" x2="101.199751%" y2="50.0206905%" id="linearGradient-1"><stop stop-color="#D68A09" offset="0%"></stop><stop stop-color="#E3A127" offset="6%"></stop><stop stop-color="#FED167" offset="21%"></stop><stop stop-color="#FED36F" offset="22%"></stop><stop stop-color="#FED983" offset="24%"></stop><stop stop-color="#FEE3A5" offset="26%"></stop><stop stop-color="#FDF1D4" offset="29%"></stop><stop stop-color="#FDFCF9" offset="31%"></stop><stop stop-color="#FED167" offset="39%"></stop><stop stop-color="#74330F" offset="53%"></stop><stop stop-color="#FED167" offset="100%"></stop></linearGradient><linearGradient x1="0.0390842487%" y1="50.016179%" x2="100.055677%" y2="50.016179%" id="linearGradient-2"><stop stop-color="#FED167" offset="0%"></stop><stop stop-color="#74330F" offset="47%"></stop><stop stop-color="#FED167" offset="61%"></stop><stop stop-color="#FDFCF9" offset="69%"></stop><stop stop-color="#FDF1D4" offset="71%"></stop><stop stop-color="#FEE3A5" offset="74%"></stop><stop stop-color="#FED983" offset="76%"></stop><stop stop-color="#FED36F" offset="78%"></stop><stop stop-color="#FED167" offset="79%"></stop><stop stop-color="#E3A127" offset="94%"></stop><stop stop-color="#D68A09" offset="100%"></stop></linearGradient><linearGradient x1="-0.794620365%" y1="50.0246352%" x2="100.753605%" y2="50.0246352%" id="linearGradient-3"><stop stop-color="#D68A09" offset="0%"></stop><stop stop-color="#E3A127" offset="6%"></stop><stop stop-color="#FED167" offset="21%"></stop><stop stop-color="#FED36F" offset="22%"></stop><stop stop-color="#FED983" offset="24%"></stop><stop stop-color="#FEE3A5" offset="26%"></stop><stop stop-color="#FDF1D4" offset="29%"></stop><stop stop-color="#FDFCF9" offset="31%"></stop><stop stop-color="#FED167" offset="39%"></stop><stop stop-color="#74330F" offset="53%"></stop><stop stop-color="#FED167" offset="100%"></stop></linearGradient><linearGradient x1="83.2751567%" y1="68.9105818%" x2="39.0599034%" y2="47.4562149%" id="linearGradient-4"><stop stop-color="#D68A09" offset="0%"></stop><stop stop-color="#E3A127" offset="6%"></stop><stop stop-color="#FED167" offset="21%"></stop><stop stop-color="#FED36F" offset="22%"></stop><stop stop-color="#FED983" offset="24%"></stop><stop stop-color="#FEE3A5" offset="26%"></stop><stop stop-color="#FDF1D4" offset="29%"></stop><stop stop-color="#FDFCF9" offset="31%"></stop><stop stop-color="#FED167" offset="39%"></stop><stop stop-color="#74330F" offset="53%"></stop><stop stop-color="#FED167" offset="100%"></stop></linearGradient></defs><g id="Page-1" stroke="none" stroke-width="1" fill="none" fill-rule="evenodd"><g id="logo-alta-calidad-ho" fill-rule="nonzero"><path d="M176.945658,185.058877 C168.010551,194.089821 157.29561,201.135499 145.49134,205.741857 C133.505558,210.379139 120.668986,212.364251 107.853696,211.562329 C95.0041823,210.912407 82.431429,207.565127 70.9419196,201.735207 C35.488946,183.584861 15.4232349,144.739761 21.0182723,105.088291 C24.5545937,79.4180053 38.8310458,56.4987723 60.2420749,42.1189013 C50.5088374,49.9467839 42.3743167,59.5999314 36.2884026,70.5444642 C30.2960851,81.4177966 26.5040218,93.3795869 25.1315292,105.738019 C22.3889486,130.408794 29.6855276,155.146339 45.3573275,174.309411 C61.0291272,193.472483 83.7399453,205.427209 108.310724,207.447391 C133.244199,209.549492 157.971896,201.483389 176.945658,185.058877 Z" id="Shape" fill="url(#linearGradient-1)"></path><path d="M161.514225,64.8593519 C149.362641,76.0130015 123.500202,103.842981 113.983255,121.277327 C112.208909,110.448541 102.019861,92.7434757 95.6214612,82.7539204 C92.0996529,77.3395277 87.314295,71.9251345 80.8352434,70.3278886 C74.3561919,68.7306428 67.9577922,70.869328 62.0164211,73.5223803 C54.9199691,77.8676679 48.281235,82.9291458 42.2028895,88.628537 C44.9445952,89.8855913 47.5869199,91.351744 50.106795,93.014195 C53.4867865,95.0289565 56.5721489,97.5072119 59.2742498,100.377769 C62.4734495,103.680549 72.5549617,116.620948 75.108945,120.35688 C82.5558217,131.456385 89.5994379,142.014452 94.0890713,154.629988 C95.8903015,159.665372 97.7452996,165.188053 102.154281,168.165971 C106.748201,170.71301 112.249758,170.992508 117.074919,168.923984 C126.323026,165.458773 132.721426,157.066464 136.915334,148.32222 C141.109243,139.577975 143.340618,129.967428 148.233511,121.60219 C165.815668,91.633525 199.313173,56.900194 248.510953,16.7795423 C250.070224,15.6695917 212.16374,18.40386 161.514225,64.8593519 Z" id="Shape" fill="url(#linearGradient-2)"></path><path d="M6.85038741,151.92279 C-0.61215022,129.959129 -1.10073842,106.201028 5.45241774,83.945087 C11.7170496,61.3676939 24.6456691,41.2397012 42.5254981,26.2276579 C60.7602436,11.5739727 82.993446,2.85836756 106.267538,1.2402344 C129.24178,-0.719790572 152.252263,4.56921646 172.106532,16.3734629 C151.72214,6.66551345 129.041173,2.91364192 106.643914,5.5446768 C84.4909653,7.83619556 63.4534243,16.4697438 46.0204218,30.4238125 C28.8796111,44.7799163 16.1899543,63.7877325 9.45813851,85.1903973 C2.4029013,106.750197 1.49937765,129.871381 6.85038741,151.92279 Z" id="Shape" fill="url(#linearGradient-3)"></path><path d="M219.556848,63.4786816 C229.686124,80.4851575 234.718213,100.077333 234.047342,119.896656 C233.634447,129.858099 231.824243,139.710641 228.670536,149.16145 C225.525084,158.584531 221.264686,167.59209 215.981273,175.989767 C205.768874,193.028679 191.574166,207.29473 174.633631,217.545235 C166.176313,222.591266 156.97394,226.246769 147.373223,228.374019 C137.825455,230.414142 127.992118,230.716706 118.338468,229.267394 C137.558777,230.031257 156.538611,224.75166 172.644213,214.161237 C188.510479,203.611289 201.807848,189.5917 211.545405,173.147211 C221.808198,157.061412 228.027253,138.701233 229.665244,119.653009 C231.001115,100.372332 227.526177,81.0614242 219.556848,63.4786816 Z" id="Shape" fill="url(#linearGradient-4)"></path><polygon id="Shape" stroke="#D9A500" stroke-width="1.80188022" fill="#D9A500" points="271.03977 97.5893573 271.03977 128.640901 268.700859 128.640901 268.700859 97.5893573"></polygon><path d="M296.875325,114.834199 L296.875325,128.640901 L294.617065,128.640901 L294.617065,114.834199 C294.794991,113.035806 294.17776,111.24972 292.929565,109.951078 C291.681373,108.652435 289.928779,107.972913 288.138013,108.09328 C283.836569,108.09328 280.422296,110.800476 280.422296,116.91874 L280.422296,128.640901 L278.217805,128.640901 L278.217805,106.550178 L280.422296,106.550178 L280.422296,110.746332 C281.890422,107.734596 284.998755,105.892757 288.326201,106.062882 C290.664619,105.913364 292.952012,106.795297 294.593293,108.479238 C296.234578,110.163179 297.067484,112.482642 296.875325,114.834199 Z" id="Shape" stroke="#D9A500" stroke-width="1.80188022" fill="#D9A500"></path><path d="M317.925521,122.793357 C317.925521,126.448072 314.753206,129.101125 310.021616,129.101125 C306.469908,129.451736 303.096724,127.463919 301.660684,124.174027 L303.542564,123.064076 C304.602331,125.668709 307.241704,127.256787 310.021616,126.962439 C313.113281,126.962439 315.72103,125.60884 315.72103,122.793357 C315.72103,116.756308 302.279015,120.22152 302.279015,112.23529 C302.398923,110.381598 303.270187,108.659019 304.688594,107.471311 C306.107002,106.283602 307.947847,105.735182 309.779661,105.954594 C312.931483,105.75293 315.889041,107.49916 317.25342,110.367325 L315.398423,111.450203 C314.413685,109.248956 312.1714,107.898502 309.779661,108.066208 C306.903067,108.066208 304.402854,109.582238 304.402854,112.23529 C304.564158,118.218194 317.925521,114.671767 317.925521,122.793357 Z" id="Shape" stroke="#D9A500" stroke-width="1.80188022" fill="#D9A500"></path><path d="M327.066093,108.634719 L327.066093,123.064076 C327.066093,126.962439 329.136165,127.043655 333.625797,126.637576 L333.625797,128.640901 C327.872614,129.534276 324.834718,128.099462 324.834718,123.064076 L324.834718,108.634719 L319.968709,108.634719 L319.968709,106.550178 L324.807836,106.550178 L324.807836,101.135785 L327.039207,100.458985 L327.039207,106.550178 L333.598911,106.550178 L333.598911,108.715935 L327.066093,108.634719 Z" id="Shape" stroke="#D9A500" stroke-width="1.80188022" fill="#D9A500"></path><path d="M338.249851,99.321963 C338.278919,98.3563754 339.064871,97.5889137 340.024197,97.5893573 C340.695255,97.5050535 341.354377,97.8182183 341.716441,98.3933837 C342.078503,98.9685492 342.078503,99.7024485 341.716441,100.277614 C341.354377,100.852779 340.695255,101.165944 340.024197,101.081641 C339.054655,101.081753 338.26454,100.298169 338.249851,99.321963 Z M338.92195,106.468961 L341.126441,106.468961 L341.126441,128.640901 L338.92195,128.640901 L338.92195,106.468961 Z" id="Shape" stroke="#D9A500" stroke-width="1.80188022" fill="#D9A500"></path><path d="M352.605924,108.634719 L352.605924,123.064076 C352.605924,126.962439 354.675994,127.043655 359.165626,126.637576 L359.165626,128.640901 C353.412444,129.534276 350.374547,128.099462 350.374547,123.064076 L350.374547,108.634719 L345.508539,108.634719 L345.508539,106.550178 L350.374547,106.550178 L350.374547,101.135785 L352.605924,100.458985 L352.605924,106.550178 L359.165626,106.550178 L359.165626,108.715935 L352.605924,108.634719 Z" id="Shape" stroke="#D9A500" stroke-width="1.80188022" fill="#D9A500"></path><path d="M382.527851,106.550178 L382.527851,128.722118 L380.323358,128.722118 L380.323358,124.417674 C378.874149,127.450169 375.756681,129.308098 372.419455,129.128196 C370.065136,129.273582 367.765607,128.373842 366.12641,126.665906 C364.48721,124.957969 363.672646,122.613033 363.897216,120.248592 L363.897216,106.550178 L366.128593,106.550178 L366.128593,120.329808 C365.940967,122.130475 366.554974,123.922351 367.805415,125.223334 C369.05586,126.524316 370.814305,127.200782 372.607642,127.070726 C376.935972,127.070726 380.323358,124.36353 380.323358,118.245266 L380.323358,106.550178 L382.527851,106.550178 Z" id="Shape" stroke="#D9A500" stroke-width="1.80188022" fill="#D9A500"></path><path d="M387.79712,117.541395 C387.744726,114.440775 388.952247,111.453131 391.13994,109.27059 C393.327632,107.088049 396.305666,105.899999 399.384139,105.981666 C403.404986,105.822921 407.151005,108.0313 408.981738,111.639707 L407.18051,112.722586 C405.712693,109.769105 402.661114,107.957148 399.384139,108.09328 C394.187464,108.09328 389.974725,112.335466 389.974725,117.568468 C389.974725,122.801468 394.187464,127.043655 399.384139,127.043655 C402.676474,127.132015 405.740063,125.354216 407.31493,122.441421 L409.169928,123.551371 C407.224298,127.137248 403.439842,129.314912 399.384139,129.182341 C396.291377,129.264845 393.300468,128.065813 391.110248,125.865398 C388.920026,123.664985 387.722373,120.655962 387.79712,117.541395 Z" id="Shape" stroke="#D9A500" stroke-width="1.80188022" fill="#D9A500"></path><path d="M413.336951,99.321963 C413.366022,98.3563754 414.151973,97.5889137 415.111296,97.5893573 C415.782357,97.5050535 416.441476,97.8182183 416.80354,98.3933837 C417.165602,98.9685492 417.165602,99.7024485 416.80354,100.277614 C416.441476,100.852779 415.782357,101.165944 415.111296,101.081641 C414.141756,101.081753 413.351642,100.298169 413.336951,99.321963 Z M414.009054,106.468961 L416.213542,106.468961 L416.213542,128.640901 L414.009054,128.640901 L414.009054,106.468961 Z" id="Shape" stroke="#D9A500" stroke-width="1.80188022" fill="#D9A500"></path><path d="M421.590349,117.541395 C421.557678,112.814872 424.359954,108.535427 428.687039,106.703822 C433.014121,104.872217 438.011074,105.850336 441.341682,109.180882 C444.672286,112.511427 445.678497,117.536357 443.889874,121.906375 C442.101251,126.276393 437.871194,129.128082 433.17737,129.128196 C430.105194,129.171955 427.144982,127.967909 424.964835,125.787803 C422.784687,123.607697 421.568353,120.635276 421.590349,117.541395 Z M442.479242,117.541395 C442.449546,112.356883 438.254403,108.176827 433.105858,108.201714 C427.95731,108.226602 423.802214,112.447022 423.821948,117.631582 C423.841679,122.816143 428.028784,127.004365 433.17737,126.989512 C435.644253,126.975332 438.003263,125.969253 439.729884,124.194976 C441.456501,122.420701 442.407603,120.025301 442.371704,117.541395 L442.479242,117.541395 Z" id="Shape" stroke="#D9A500" stroke-width="1.80188022" fill="#D9A500"></path><path d="M468.529869,114.834199 L468.529869,128.640901 L466.271608,128.640901 L466.271608,114.834199 C466.449536,113.035806 465.832303,111.24972 464.584108,109.951078 C463.335915,108.652435 461.583326,107.972913 459.79256,108.09328 C455.491116,108.09328 452.103727,110.800476 452.103727,116.91874 L452.103727,128.640901 L449.899234,128.640901 L449.899234,106.550178 L452.103727,106.550178 L452.103727,110.746332 C453.557048,107.733828 456.659293,105.889323 459.980746,106.062882 C462.319162,105.913364 464.606556,106.795297 466.247838,108.479238 C467.889122,110.163179 468.722028,112.482642 468.529869,114.834199 Z" id="Shape" stroke="#D9A500" stroke-width="1.80188022" fill="#D9A500"></path><path d="M496.354843,106.550178 L496.354843,128.722118 L494.177236,128.722118 L494.177236,123.632587 C492.250699,127.064842 488.601129,129.147043 484.687172,129.046981 C478.555705,128.748271 473.736825,123.655266 473.736825,117.473716 C473.736825,111.292165 478.555705,106.19916 484.687172,105.900451 C488.601129,105.800388 492.250699,107.882589 494.177236,111.314843 L494.177236,106.550178 L496.354843,106.550178 Z M494.177236,117.541395 C494.147541,112.356883 489.952399,108.176827 484.803849,108.201714 C479.655303,108.226602 475.500208,112.447022 475.519942,117.631582 C475.539675,122.816143 479.726775,127.004365 484.87536,126.989512 C487.36089,127.004328 489.74771,126.011019 491.497674,124.233545 C493.247634,122.456072 494.213408,120.044077 494.177236,117.541395 Z" id="Shape" stroke="#D9A500" stroke-width="1.80188022" fill="#D9A500"></path><polygon id="Shape" stroke="#D9A500" stroke-width="1.80188022" fill="#D9A500" points="503.129619 96.2628311 505.334112 96.2628311 505.334112 128.749189 503.129619 128.749189"></polygon><path d="M545.498853,97.5893573 L545.498853,128.640901 L543.294364,128.640901 L543.294364,123.497227 C541.457599,127.031337 537.791452,129.212841 533.831184,129.128196 C527.699717,128.829487 522.880837,123.736482 522.880837,117.554931 C522.880837,111.373381 527.699717,106.280376 533.831184,105.981666 C537.791452,105.897022 541.457599,108.078526 543.294364,111.612635 L543.294364,97.5893573 L545.498853,97.5893573 Z M543.294364,117.541395 C543.264707,112.360401 539.075039,108.181757 533.929967,108.201636 C528.784889,108.221516 524.627189,112.432413 524.637017,117.613483 C524.646845,122.794554 528.820491,126.989425 533.965604,126.989512 C536.455777,127.011647 538.849583,126.021565 540.6054,124.243281 C542.361219,122.464997 543.330655,120.048807 543.294364,117.541395 Z" id="Shape" stroke="#D9A500" stroke-width="1.80188022" fill="#D9A500"></path><path d="M573.081869,117.649683 C573.081869,118.001619 573.081869,118.353554 573.081869,118.70549 L553.133916,118.70549 C553.520013,123.546388 557.644844,127.209276 562.462679,126.989512 C565.551704,127.165848 568.486293,125.61546 570.097742,122.955788 L572.033394,124.119883 C569.960463,127.404856 566.296321,129.316915 562.435792,129.128196 C557.715854,129.439679 553.287462,126.810743 551.272832,122.50125 C549.258201,118.191757 550.067816,113.079768 553.31368,109.615098 C556.55955,106.150427 561.580322,105.039003 565.9699,106.813451 C570.359481,108.5879 573.223489,112.886678 573.189407,117.649683 L573.081869,117.649683 Z M553.08015,116.539733 L570.796728,116.539733 C570.694182,111.833847 566.868153,108.077391 562.193835,108.09328 C557.38393,107.954024 553.340628,111.701305 553.08015,116.539733 Z" id="Shape" stroke="#D9A500" stroke-width="1.80188022" fill="#D9A500"></path><path d="M287.385261,196.753964 L278.755488,196.753964 L277.276867,186.791481 L266.76521,186.791481 L265.286587,196.753964 L257.43645,196.753964 L266.146877,141.906163 L278.674834,141.906163 L287.385261,196.753964 Z M267.867456,179.346692 L276.093967,179.346692 L272.061362,151.624999 L271.900059,151.624999 L267.867456,179.346692 Z" id="Shape" fill="#D9A500"></path><polygon id="Shape" fill="#D9A500" points="291.364098 141.906163 299.91322 141.906163 299.91322 188.903096 314.054221 188.903096 314.054221 196.753964 291.417866 196.753964"></polygon><polygon id="Shape" fill="#D9A500" points="311.365819 141.906163 337.819706 141.906163 337.819706 149.865321 328.867323 149.865321 328.867323 196.753964 320.3182 196.753964 320.3182 149.865321 311.365819 149.865321"></polygon><path d="M366.289896,196.753964 L357.660123,196.753964 L356.1815,186.791481 L345.669843,186.791481 L344.191222,196.753964 L336.341085,196.753964 L345.05151,141.906163 L357.579469,141.906163 L366.289896,196.753964 Z M346.772089,179.346692 L354.998601,179.346692 L350.965997,151.624999 L350.804694,151.624999 L346.772089,179.346692 Z" id="Shape" fill="#D9A500"></path><path d="M407.153626,176.287559 L407.153626,183.569919 C407.153626,192.341236 402.798412,197.37662 394.383707,197.37662 C385.969009,197.37662 381.613794,192.341236 381.613794,183.569919 L381.613794,155.063139 C381.613794,146.291822 385.969009,141.283509 394.383707,141.283509 C402.798412,141.283509 407.153626,146.291822 407.153626,155.063139 L407.153626,160.477532 L399.088416,160.477532 L399.088416,154.521699 C399.088416,150.596264 397.367835,149.107307 394.652551,149.107307 C391.937261,149.107307 390.216683,150.596264 390.216683,154.521699 L390.216683,184.138429 C390.216683,188.036791 391.910377,189.552822 394.652551,189.552822 C397.394721,189.552822 399.088416,188.145081 399.088416,184.138429 L399.088416,176.287559 L407.153626,176.287559 Z" id="Shape" fill="#D9A500"></path><path d="M440.059679,196.753964 L431.429905,196.753964 L429.951283,186.791481 L419.439627,186.791481 L417.961007,196.753964 L410.110867,196.753964 L418.901945,141.906163 L431.429905,141.906163 L440.059679,196.753964 Z M420.541873,179.346692 L428.768383,179.346692 L424.73578,151.624999 L424.574477,151.624999 L420.541873,179.346692 Z" id="Shape" fill="#D9A500"></path><polygon id="Shape" fill="#D9A500" points="444.038516 141.906163 452.587638 141.906163 452.587638 188.903096 466.674871 188.903096 466.674871 196.753964 444.038516 196.753964"></polygon><polygon id="Shape" fill="#D9A500" points="470.411752 141.906163 478.960875 141.906163 478.960875 196.753964 470.411752 196.753964"></polygon><path d="M485.19797,141.906163 L498.639984,141.906163 C507.215994,141.906163 511.4099,146.67083 511.4099,155.442146 L511.4099,183.19091 C511.4099,191.962226 507.215994,196.726893 498.639984,196.726893 L485.19797,196.726893 L485.19797,141.906163 Z M493.747093,149.865321 L493.747093,188.903096 L498.586217,188.903096 C501.274621,188.903096 502.941429,187.495351 502.941429,183.488701 L502.941429,155.063139 C502.941429,151.137703 501.301505,149.648746 498.586217,149.648746 L493.747093,149.865321 Z" id="Shape" fill="#D9A500"></path><path d="M544.557911,196.753964 L535.92814,196.753964 L534.503285,186.791481 L523.991628,186.791481 L522.513005,196.753964 L514.609099,196.753964 L523.319527,141.906163 L535.847486,141.906163 L544.557911,196.753964 Z M525.040105,179.346692 L533.266619,179.346692 L529.126479,151.624999 L525.040105,179.346692 Z" id="Shape" fill="#D9A500"></path><path d="M548.536748,141.906163 L561.978765,141.906163 C570.554769,141.906163 574.74868,146.67083 574.74868,155.442146 L574.74868,183.19091 C574.74868,191.962226 570.554769,196.726893 561.978765,196.726893 L548.536748,196.726893 L548.536748,141.906163 Z M557.085869,149.865321 L557.085869,188.903096 L561.924995,188.903096 C564.613399,188.903096 566.280208,187.495351 566.280208,183.488701 L566.280208,155.063139 C566.280208,151.137703 564.640284,149.648746 561.924995,149.648746 L557.085869,149.865321 Z" id="Shape" fill="#D9A500"></path><path d="M290.880186,78.2329025 L272.222666,78.2329025 L268.620208,87.762234 L265.662964,87.762234 L280.099689,50.3217067 L283.083817,50.3217067 L297.493657,87.762234 L294.50953,87.762234 L290.880186,78.2329025 Z M289.858591,75.5257059 L281.57831,53.8681342 L273.298029,75.5257059 L289.858591,75.5257059 Z" id="Shape" stroke="#D9A500" stroke-width="1.80188022" fill="#D9A500"></path><path d="M299.993872,74.3886834 C299.947694,70.6463731 301.424085,67.0479919 304.079912,64.4298483 C306.735738,61.8117056 310.339711,60.4018089 314.054221,60.5278374 C318.911925,60.3423614 323.434144,63.015492 325.64124,67.3770445 L323.463633,68.6494268 C321.66686,65.1132922 317.995921,62.9481407 314.054221,63.0996741 C307.803364,63.0996741 302.736044,68.2024179 302.736044,74.4969713 C302.736044,80.7915246 307.803364,85.8942682 314.054221,85.8942682 C318.02191,85.9558846 321.700849,83.8121776 323.624937,80.3174436 L325.856312,81.6710419 C323.487235,85.9705557 318.935072,88.5810254 314.054221,88.4390332 C310.306409,88.5672044 306.672284,87.1317628 304.010496,84.4718649 C301.348704,81.8119674 299.895368,78.1635675 299.993872,74.3886834 Z" id="Shape" stroke="#D9A500" stroke-width="1.80188022" fill="#D9A500"></path><path d="M343.115861,60.5278374 L343.115861,63.235034 C338.545575,63.235034 334.24413,66.0775901 334.24413,72.8997253 L334.24413,87.7893061 L331.555726,87.7893061 L331.555726,61.0151327 L334.24413,61.0151327 L334.24413,66.2400221 C335.659107,62.600721 339.241646,60.2940543 343.115861,60.5278374 Z" id="Shape" stroke="#D9A500" stroke-width="1.80188022" fill="#D9A500"></path><path d="M371.962428,74.4969713 C371.962428,74.9301226 371.962428,75.3362021 371.962428,75.7693536 L347.766797,75.7693536 C348.197453,81.6345179 353.198228,86.0813473 359.031206,85.7859806 C362.755202,85.9995195 366.291963,84.1250542 368.225547,80.9130269 L370.564457,82.2936969 C368.051406,86.2470245 363.633738,88.5487099 358.977438,88.3307452 C353.723075,88.8788707 348.615589,86.3743589 345.804001,81.8710049 C342.992414,77.3676508 342.964756,71.6471445 345.732667,67.1164364 C348.500576,62.585728 353.583603,60.0312567 358.843018,60.5278374 C362.427574,60.6126109 365.829937,62.1359829 368.293636,64.7592506 C370.757333,67.3825184 372.078153,70.8882437 371.962428,74.4969713 Z M347.766797,73.143373 L369.112719,73.143373 C369.009721,67.4743175 364.392828,62.9459087 358.762366,62.991386 C353.014118,62.8932811 348.205942,67.3653776 347.84745,73.143373 L347.766797,73.143373 Z" id="Shape" stroke="#D9A500" stroke-width="1.80188022" fill="#D9A500"></path><path d="M404.250149,50.3217067 L404.250149,87.762234 L401.561746,87.762234 L401.561746,81.562754 C399.346979,85.8156857 394.930626,88.437871 390.162917,88.3307452 C382.746162,88.0017193 376.901293,81.8509926 376.901293,74.3751476 C376.901293,66.8993025 382.746162,60.7485757 390.162917,60.4195494 C394.934868,60.3240283 399.349618,62.9557467 401.561746,67.2146129 L401.561746,50.3217067 L404.250149,50.3217067 Z M401.561746,74.3886834 C401.532049,68.127649 396.470273,63.0749026 390.252681,63.0997957 C384.035086,63.1246886 379.013366,68.2178054 379.033111,74.4788796 C379.052853,80.7399542 384.106596,85.8008523 390.32422,85.7859806 C393.329969,85.8154738 396.220375,84.6223949 398.340793,82.4769608 C400.461213,80.3315266 401.632229,77.415269 401.588628,74.3886834 L401.561746,74.3886834 Z" id="Shape" stroke="#D9A500" stroke-width="1.80188022" fill="#D9A500"></path><path d="M411.643258,52.4062478 C411.643258,51.2250848 412.594131,50.2675627 413.767096,50.2675627 C414.940061,50.2675627 415.890935,51.2250848 415.890935,52.4062478 C415.890935,53.587411 414.940061,54.5449331 413.767096,54.5449331 C412.594131,54.5449331 411.643258,53.587411 411.643258,52.4062478 Z M412.422892,61.0151327 L415.111296,61.0151327 L415.111296,87.762234 L412.422892,87.762234 L412.422892,61.0151327 Z" id="Shape" stroke="#D9A500" stroke-width="1.80188022" fill="#D9A500"></path><path d="M428.956575,63.6411133 L428.956575,81.0213146 C428.956575,85.7318367 431.429905,85.8401244 436.860478,85.3528293 L436.860478,87.762234 C429.897517,88.8180407 426.106867,87.1125071 426.106867,81.0213146 L426.106867,63.6411133 L420.24615,63.6411133 L420.24615,60.9339166 L426.106867,60.9339166 L426.106867,54.3283573 L428.795271,53.5161985 L428.795271,61.0151327 L436.699174,61.0151327 L436.699174,63.7223292 L428.956575,63.6411133 Z" id="Shape" stroke="#D9A500" stroke-width="1.80188022" fill="#D9A500"></path><path d="M467.72335,61.0151327 L467.72335,87.7622339 L465.034947,87.7622339 L465.034947,81.6981139 C462.751482,85.8804278 458.347676,88.4368398 453.609234,88.3307451 C446.19248,88.0017193 440.34761,81.8509926 440.34761,74.3751476 C440.34761,66.8993025 446.19248,60.7485755 453.609234,60.4195494 C458.344557,60.3256973 462.742526,62.8787186 465.034947,67.0521809 L465.034947,61.0151327 L467.72335,61.0151327 Z M465.034947,74.3886834 C464.990359,68.1427243 459.928665,63.1143354 453.726029,63.1541763 C447.523399,63.1940174 442.525817,68.2870194 442.560357,74.5330434 C442.594901,80.7790668 447.648499,85.8157048 453.851187,85.7859806 C456.840602,85.7936827 459.707418,84.5900884 461.806035,82.446249 C463.90465,80.3024098 465.058618,77.3985727 465.008059,74.3886834 L465.034947,74.3886834 Z" id="Shape" stroke="#D9A500" stroke-width="1.80188022" fill="#D9A500"></path><path d="M474.094866,74.3886834 C474.049792,70.6657373 475.511573,67.0847028 478.143701,64.4699217 C480.775831,61.8551411 484.351529,60.4319049 488.047678,60.5278374 C492.854374,60.3473135 497.33417,62.9717691 499.554043,67.2687567 L497.376435,68.541139 C495.58474,65.0001793 491.910421,62.833034 487.967025,62.991386 C481.716168,62.991386 476.648845,68.0941298 476.648845,74.3886834 C476.648845,80.6832368 481.716168,85.7859806 487.967025,85.7859806 C491.934712,85.8475969 495.613653,83.7038898 497.537741,80.2091558 L499.769114,81.562754 C497.404564,85.8667731 492.849412,88.4789569 487.967025,88.3307451 C484.268253,88.412644 480.696491,86.9709665 478.077897,84.3391774 C475.459304,81.7073886 474.020709,78.1134622 474.094866,74.3886834 Z" id="Shape" stroke="#D9A500" stroke-width="1.80188022" fill="#D9A500"></path><path d="M504.930851,52.4062478 C504.930851,51.2250848 505.881725,50.2675627 507.054689,50.2675627 C508.227649,50.2675627 509.178528,51.2250848 509.178528,52.4062478 C509.178528,53.587411 508.227649,54.5449331 507.054689,54.5449331 C505.887779,54.5303342 504.945346,53.5813111 504.930851,52.4062478 Z M505.737369,61.0151327 L508.425773,61.0151327 L508.425773,87.762234 L505.737369,87.762234 L505.737369,61.0151327 Z" id="Shape" stroke="#D9A500" stroke-width="1.80188022" fill="#D9A500"></path><path d="M514.716635,74.3886834 C514.673097,68.6986651 518.041935,63.5439983 523.248831,61.3335492 C528.455726,59.1231001 534.472491,60.2933602 538.487388,64.2974456 C542.50228,68.3015314 543.722495,74.3487678 541.577798,79.6131748 C539.433104,84.8775821 534.347008,88.3196123 528.696334,88.3307452 C524.994577,88.3890633 521.42556,86.9433169 518.795086,84.3199269 C516.164616,81.6965367 514.694492,78.1167037 514.716635,74.3886834 Z M539.880089,74.3886834 C539.835502,68.1427243 534.773812,63.1143354 528.571177,63.1541765 C522.368544,63.1940174 517.370963,68.2870196 517.405506,74.5330434 C517.440043,80.7790668 522.493644,85.8157048 528.696334,85.7859806 C531.690398,85.8009776 534.564193,84.6005977 536.668658,82.4559495 C538.773121,80.3113019 539.930752,77.4032851 539.880089,74.3886834 Z M528.911405,57.2521297 L533.723646,50.4570666 L530.551332,50.4570666 L526.438075,57.2521297 L528.911405,57.2521297 Z" id="Shape" stroke="#D9A500" stroke-width="1.80188022" fill="#D9A500"></path><path d="M571.441942,71.1129757 L571.441942,87.762234 L568.753538,87.762234 L568.753538,71.1129757 C568.982028,68.9446602 568.244447,66.785876 566.739481,65.2181304 C565.234509,63.6503842 563.116941,62.8349161 560.957172,62.991386 C555.741669,62.991386 551.655295,66.4024536 551.655295,73.6306682 L551.655295,87.762234 L548.966896,87.762234 L548.966896,61.0151327 L551.655295,61.0151327 L551.655295,66.0775901 C553.438211,62.489034 557.16654,60.3087199 561.145359,60.5278374 C563.959053,60.3715768 566.703069,61.4443354 568.674974,63.471501 C570.646878,65.4986666 571.655244,68.2834484 571.441942,71.1129757 Z" id="Shape" stroke="#D9A500" stroke-width="1.80188022" fill="#D9A500"></path></g></g></svg>